<?xml version="1.0" encoding="UTF-8"?>
<svg width="500" height="400" viewBox="0 0 500 400" fill="none" xmlns="http://www.w3.org/2000/svg">
  <!-- Fondo de la aguja -->
  <circle cx="250" cy="200" r="150" fill="#F0E6FF"/>
  
  <!-- Círculo exterior -->
  <circle cx="250" cy="200" r="130" stroke="#CBB4E9" stroke-width="4" stroke-dasharray="8 8"/>
  
  <!-- Círculo medio -->
  <circle cx="250" cy="200" r="100" stroke="#9D7ACD" stroke-width="3" stroke-dasharray="6 6"/>
  
  <!-- Círculo interior -->
  <circle cx="250" cy="200" r="70" stroke="#6A3D9E" stroke-width="2" stroke-dasharray="4 4"/>
  
  <!-- Aguja -->
  <line x1="250" y1="70" x2="250" y2="330" stroke="#3E195F" stroke-width="4" stroke-linecap="round"/>
  <line x1="70" y1="200" x2="430" y2="200" stroke="#3E195F" stroke-width="4" stroke-linecap="round"/>
  
  <!-- Hilos decorativos -->
  <path d="M250 70C294.2 85.6 328 120.2 328 200C328 279.8 294.2 314.4 250 330" stroke="#CBB4E9" stroke-width="2" fill="none" stroke-dasharray="4 4"/>
  <path d="M250 70C205.8 85.6 172 120.2 172 200C172 279.8 205.8 314.4 250 330" stroke="#CBB4E9" stroke-width="2" fill="none" stroke-dasharray="4 4"/>
  
  <!-- Elementos decorativos -->
  <circle cx="250" cy="70" r="8" fill="#9D7ACD"/>
  <circle cx="250" cy="330" r="8" fill="#9D7ACD"/>
  <circle cx="70" cy="200" r="8" fill="#9D7ACD"/>
  <circle cx="430" cy="200" r="8" fill="#9D7ACD"/>
  
  <!-- Tijeras decorativas -->
  <path d="M100 120L140 80" stroke="#3E195F" stroke-width="3" stroke-linecap="round"/>
  <path d="M140 120L100 80" stroke="#3E195F" stroke-width="3" stroke-linecap="round"/>
  <path d="M400 280L360 320" stroke="#3E195F" stroke-width="3" stroke-linecap="round"/>
  <path d="M360 280L400 320" stroke="#3E195F" stroke-width="3" stroke-linecap="round"/>
  
  <!-- Hilos decorativos adicionales -->
  <path d="M150 100C180 70 320 70 350 100" stroke="#CBB4E9" stroke-width="2" fill="none" stroke-dasharray="4 4"/>
  <path d="M150 300C180 330 320 330 350 300" stroke="#CBB4E9" stroke-width="2" fill="none" stroke-dasharray="4 4"/>
</svg>
